<svg width="66" height="19" viewBox="0 0 66 19" fill="none" xmlns="http://www.w3.org/2000/svg">
<path d="M5.048 14.4H10.304V18H0.344V1.08H5.048V14.4ZM20.2451 18.168C18.6611 18.168 17.2051 17.8 15.8771 17.064C14.5491 16.312 13.4931 15.28 12.7091 13.968C11.9411 12.64 11.5571 11.144 11.5571 9.48C11.5571 7.816 11.9411 6.328 12.7091 5.016C13.4931 3.688 14.5491 2.656 15.8771 1.92C17.2051 1.184 18.6611 0.816 20.2451 0.816C21.8451 0.816 23.3011 1.184 24.6131 1.92C25.9411 2.656 26.9891 3.688 27.7571 5.016C28.5251 6.328 28.9091 7.816 28.9091 9.48C28.9091 11.144 28.5251 12.64 27.7571 13.968C26.9891 15.28 25.9411 16.312 24.6131 17.064C23.2851 17.8 21.8291 18.168 20.2451 18.168ZM20.2451 13.8C21.4451 13.8 22.3891 13.408 23.0771 12.624C23.7811 11.84 24.1331 10.792 24.1331 9.48C24.1331 8.136 23.7811 7.08 23.0771 6.312C22.3891 5.528 21.4451 5.136 20.2451 5.136C19.0291 5.136 18.0771 5.528 17.3891 6.312C16.7011 7.08 16.3571 8.136 16.3571 9.48C16.3571 10.808 16.7011 11.864 17.3891 12.648C18.0771 13.416 19.0291 13.8 20.2451 13.8ZM41.8237 6.648C41.5517 6.2 41.1757 5.856 40.6957 5.616C40.2317 5.376 39.6797 5.256 39.0397 5.256C37.8557 5.256 36.9197 5.64 36.2317 6.408C35.5597 7.176 35.2237 8.208 35.2237 9.504C35.2237 10.96 35.5837 12.072 36.3037 12.84C37.0397 13.592 38.1037 13.968 39.4957 13.968C41.1437 13.968 42.3197 13.224 43.0237 11.736H38.2957V8.352H47.0797V12.912C46.7117 13.808 46.1677 14.648 45.4477 15.432C44.7437 16.216 43.8477 16.864 42.7597 17.376C41.6717 17.872 40.4317 18.12 39.0397 18.12C37.3437 18.12 35.8397 17.76 34.5277 17.04C33.2317 16.304 32.2237 15.288 31.5037 13.992C30.7997 12.68 30.4477 11.184 30.4477 9.504C30.4477 7.84 30.7997 6.36 31.5037 5.064C32.2237 3.752 33.2317 2.736 34.5277 2.016C35.8237 1.28 37.3197 0.912 39.0157 0.912C41.1437 0.912 42.9037 1.424 44.2957 2.448C45.6877 3.472 46.5517 4.872 46.8877 6.648H41.8237ZM57.2998 18.168C55.7158 18.168 54.2598 17.8 52.9318 17.064C51.6038 16.312 50.5478 15.28 49.7638 13.968C48.9958 12.64 48.6118 11.144 48.6118 9.48C48.6118 7.816 48.9958 6.328 49.7638 5.016C50.5478 3.688 51.6038 2.656 52.9318 1.92C54.2598 1.184 55.7158 0.816 57.2998 0.816C58.8998 0.816 60.3558 1.184 61.6678 1.92C62.9958 2.656 64.0438 3.688 64.8118 5.016C65.5798 6.328 65.9638 7.816 65.9638 9.48C65.9638 11.144 65.5798 12.64 64.8118 13.968C64.0438 15.28 62.9958 16.312 61.6678 17.064C60.3398 17.8 58.8838 18.168 57.2998 18.168ZM57.2998 13.8C58.4998 13.8 59.4438 13.408 60.1318 12.624C60.8358 11.84 61.1878 10.792 61.1878 9.48C61.1878 8.136 60.8358 7.08 60.1318 6.312C59.4438 5.528 58.4998 5.136 57.2998 5.136C56.0838 5.136 55.1318 5.528 54.4438 6.312C53.7558 7.08 53.4118 8.136 53.4118 9.48C53.4118 10.808 53.7558 11.864 54.4438 12.648C55.1318 13.416 56.0838 13.8 57.2998 13.8Z" fill="white"/>
</svg>
